  0
SECTION
  2
HEADER
  9
$ACADVER
  1
AC1027
  9
$ACADMAINTVER
 70
105
  9
$DWGCODEPAGE
  3
ANSI_1252
  9
$LASTSAVEDBY
  1
ezdxf
  9
$REQUIREDVERSIONS
160
0
  9
$INSBASE
 10
0.0
 20
0.0
 30
0.0
  9
$EXTMIN
 10
1e+20
 20
1e+20
 30
1e+20
  9
$EXTMAX
 10
-1e+20
 20
-1e+20
 30
-1e+20
  9
$LIMMIN
 10
0.0
 20
0.0
  9
$LIMMAX
 10
420.0
 20
297.0
  9
$ORTHOMODE
 70
0
  9
$REGENMODE
 70
1
  9
$FILLMODE
 70
1
  9
$QTEXTMODE
 70
0
  9
$MIRRTEXT
 70
1
  9
$LTSCALE
 40
1.0
  9
$ATTMODE
 70
1
  9
$TEXTSIZE
 40
2.5
  9
$TRACEWID
 40
1.0
  9
$TEXTSTYLE
  7
Standard
  9
$CLAYER
  8
0
  9
$CELTYPE
  6
ByLayer
  9
$CECOLOR
 62
256
  9
$CELTSCALE
 40
1.0
  9
$DISPSILH
 70
0
  9
$DIMSCALE
 40
1.0
  9
$DIMASZ
 40
2.5
  9
$DIMEXO
 40
0.625
  9
$DIMDLI
 40
3.75
  9
$DIMRND
 40
0.0
  9
$DIMDLE
 40
0.0
  9
$DIMEXE
 40
1.25
  9
$DIMTP
 40
0.0
  9
$DIMTM
 40
0.0
  9
$DIMTXT
 40
2.5
  9
$DIMCEN
 40
2.5
  9
$DIMTSZ
 40
0.0
  9
$DIMTOL
 70
0
  9
$DIMLIM
 70
0
  9
$DIMTIH
 70
0
  9
$DIMTOH
 70
0
  9
$DIMSE1
 70
0
  9
$DIMSE2
 70
0
  9
$DIMTAD
 70
1
  9
$DIMZIN
 70
8
  9
$DIMBLK
  1

  9
$DIMASO
 70
1
  9
$DIMSHO
 70
1
  9
$DIMPOST
  1

  9
$DIMAPOST
  1

  9
$DIMALT
 70
0
  9
$DIMALTD
 70
3
  9
$DIMALTF
 40
0.03937007874
  9
$DIMLFAC
 40
1.0
  9
$DIMTOFL
 70
1
  9
$DIMTVP
 40
0.0
  9
$DIMTIX
 70
0
  9
$DIMSOXD
 70
0
  9
$DIMSAH
 70
0
  9
$DIMBLK1
  1

  9
$DIMBLK2
  1

  9
$DIMSTYLE
  2
ISO-25
  9
$DIMCLRD
 70
0
  9
$DIMCLRE
 70
0
  9
$DIMCLRT
 70
0
  9
$DIMTFAC
 40
1.0
  9
$DIMGAP
 40
0.625
  9
$DIMJUST
 70
0
  9
$DIMSD1
 70
0
  9
$DIMSD2
 70
0
  9
$DIMTOLJ
 70
0
  9
$DIMTZIN
 70
8
  9
$DIMALTZ
 70
0
  9
$DIMALTTZ
 70
0
  9
$DIMUPT
 70
0
  9
$DIMDEC
 70
2
  9
$DIMTDEC
 70
2
  9
$DIMALTU
 70
2
  9
$DIMALTTD
 70
3
  9
$DIMTXSTY
  7
Standard
  9
$DIMAUNIT
 70
0
  9
$DIMADEC
 70
0
  9
$DIMALTRND
 40
0.0
  9
$DIMAZIN
 70
0
  9
$DIMDSEP
 70
44
  9
$DIMATFIT
 70
3
  9
$DIMFRAC
 70
0
  9
$DIMLDRBLK
  1

  9
$DIMLUNIT
 70
2
  9
$DIMLWD
 70
-2
  9
$DIMLWE
 70
-2
  9
$DIMTMOVE
 70
0
  9
$DIMFXL
 40
1.0
  9
$DIMFXLON
 70
0
  9
$DIMJOGANG
 40
0.785398163397
  9
$DIMTFILL
 70
0
  9
$DIMTFILLCLR
 70
0
  9
$DIMARCSYM
 70
0
  9
$DIMLTYPE
  6

  9
$DIMLTEX1
  6

  9
$DIMLTEX2
  6

  9
$DIMTXTDIRECTION
 70
0
  9
$LUNITS
 70
2
  9
$LUPREC
 70
4
  9
$SKETCHINC
 40
1.0
  9
$FILLETRAD
 40
10.0
  9
$AUNITS
 70
0
  9
$AUPREC
 70
2
  9
$MENU
  1
.
  9
$ELEVATION
 40
0.0
  9
$PELEVATION
 40
0.0
  9
$THICKNESS
 40
0.0
  9
$LIMCHECK
 70
0
  9
$CHAMFERA
 40
0.0
  9
$CHAMFERB
 40
0.0
  9
$CHAMFERC
 40
0.0
  9
$CHAMFERD
 40
0.0
  9
$SKPOLY
 70
0
  9
$TDCREATE
 40
2461066.8760648146
  9
$TDUCREATE
 40
2458532.153996898
  9
$TDUPDATE
 40
2461066.8760648146
  9
$TDUUPDATE
 40
2458532.1544311
  9
$TDINDWG
 40
0.0
  9
$TDUSRTIMER
 40
0.0
  9
$USRTIMER
 70
1
  9
$ANGBASE
 50
0.0
  9
$ANGDIR
 70
0
  9
$PDMODE
 70
0
  9
$PDSIZE
 40
0.0
  9
$PLINEWID
 40
0.0
  9
$SPLFRAME
 70
0
  9
$SPLINETYPE
 70
6
  9
$SPLINESEGS
 70
8
  9
$HANDSEED
  5
37
  9
$SURFTAB1
 70
6
  9
$SURFTAB2
 70
6
  9
$SURFTYPE
 70
6
  9
$SURFU
 70
6
  9
$SURFV
 70
6
  9
$UCSBASE
  2

  9
$UCSNAME
  2

  9
$UCSORG
 10
0.0
 20
0.0
 30
0.0
  9
$UCSXDIR
 10
1.0
 20
0.0
 30
0.0
  9
$UCSYDIR
 10
0.0
 20
1.0
 30
0.0
  9
$UCSORTHOREF
  2

  9
$UCSORTHOVIEW
 70
0
  9
$UCSORGTOP
 10
0.0
 20
0.0
 30
0.0
  9
$UCSORGBOTTOM
 10
0.0
 20
0.0
 30
0.0
  9
$UCSORGLEFT
 10
0.0
 20
0.0
 30
0.0
  9
$UCSORGRIGHT
 10
0.0
 20
0.0
 30
0.0
  9
$UCSORGFRONT
 10
0.0
 20
0.0
 30
0.0
  9
$UCSORGBACK
 10
0.0
 20
0.0
 30
0.0
  9
$PUCSBASE
  2

  9
$PUCSNAME
  2

  9
$PUCSORG
 10
0.0
 20
0.0
 30
0.0
  9
$PUCSXDIR
 10
1.0
 20
0.0
 30
0.0
  9
$PUCSYDIR
 10
0.0
 20
1.0
 30
0.0
  9
$PUCSORTHOREF
  2

  9
$PUCSORTHOVIEW
 70
0
  9
$PUCSORGTOP
 10
0.0
 20
0.0
 30
0.0
  9
$PUCSORGBOTTOM
 10
0.0
 20
0.0
 30
0.0
  9
$PUCSORGLEFT
 10
0.0
 20
0.0
 30
0.0
  9
$PUCSORGRIGHT
 10
0.0
 20
0.0
 30
0.0
  9
$PUCSORGFRONT
 10
0.0
 20
0.0
 30
0.0
  9
$PUCSORGBACK
 10
0.0
 20
0.0
 30
0.0
  9
$USERI1
 70
0
  9
$USERI2
 70
0
  9
$USERI3
 70
0
  9
$USERI4
 70
0
  9
$USERI5
 70
0
  9
$USERR1
 40
0.0
  9
$USERR2
 40
0.0
  9
$USERR3
 40
0.0
  9
$USERR4
 40
0.0
  9
$USERR5
 40
0.0
  9
$WORLDVIEW
 70
1
  9
$SHADEDGE
 70
3
  9
$SHADEDIF
 70
70
  9
$TILEMODE
 70
1
  9
$MAXACTVP
 70
64
  9
$PINSBASE
 10
0.0
 20
0.0
 30
0.0
  9
$PLIMCHECK
 70
0
  9
$PEXTMIN
 10
1e+20
 20
1e+20
 30
1e+20
  9
$PEXTMAX
 10
-1e+20
 20
-1e+20
 30
-1e+20
  9
$PLIMMIN
 10
0.0
 20
0.0
  9
$PLIMMAX
 10
420.0
 20
297.0
  9
$UNITMODE
 70
0
  9
$VISRETAIN
 70
1
  9
$PLINEGEN
 70
0
  9
$PSLTSCALE
 70
1
  9
$TREEDEPTH
 70
3020
  9
$CMLSTYLE
  2
Standard
  9
$CMLJUST
 70
0
  9
$CMLSCALE
 40
20.0
  9
$PROXYGRAPHICS
 70
1
  9
$MEASUREMENT
 70
1
  9
$CELWEIGHT
370
-1
  9
$ENDCAPS
280
0
  9
$JOINSTYLE
280
0
  9
$LWDISPLAY
290
0
  9
$INSUNITS
 70
4
  9
$HYPERLINKBASE
  1

  9
$STYLESHEET
  1

  9
$XEDIT
290
1
  9
$CEPSNTYPE
380
0
  9
$PSTYLEMODE
290
1
  9
$FINGERPRINTGUID
  2
{54F2E49E-2DF8-440D-A09A-CE08259282EF}
  9
$VERSIONGUID
  2
{9F6BC92C-BCE8-449A-81A5-D1C3ED9F7A27}
  9
$EXTNAMES
290
1
  9
$PSVPSCALE
 40
0.0
  9
$OLESTARTUP
290
0
  9
$SORTENTS
280
127
  9
$INDEXCTL
280
0
  9
$HIDETEXT
280
1
  9
$XCLIPFRAME
280
1
  9
$HALOGAP
280
0
  9
$OBSCOLOR
 70
257
  9
$OBSLTYPE
280
0
  9
$INTERSECTIONDISPLAY
280
0
  9
$INTERSECTIONCOLOR
 70
257
  9
$DIMASSOC
280
2
  9
$PROJECTNAME
  1

  9
$CAMERADISPLAY
290
0
  9
$LENSLENGTH
 40
50.0
  9
$CAMERAHEIGHT
 40
0.0
  9
$STEPSPERSEC
 40
24.0
  9
$STEPSIZE
 40
100.0
  9
$3DDWFPREC
 40
2.0
  9
$PSOLWIDTH
 40
0.005
  9
$PSOLHEIGHT
 40
0.08
  9
$LOFTANG1
 40
1.570796326795
  9
$LOFTANG2
 40
1.570796326795
  9
$LOFTMAG1
 40
0.0
  9
$LOFTMAG2
 40
0.0
  9
$LOFTPARAM
 70
7
  9
$LOFTNORMALS
280
1
  9
$LATITUDE
 40
37.795
  9
$LONGITUDE
 40
-122.394
  9
$NORTHDIRECTION
 40
0.0
  9
$TIMEZONE
 70
-8000
  9
$LIGHTGLYPHDISPLAY
280
1
  9
$TILEMODELIGHTSYNCH
280
1
  9
$CMATERIAL
347
20
  9
$SOLIDHIST
280
0
  9
$SHOWHIST
280
1
  9
$DWFFRAME
280
2
  9
$DGNFRAME
280
2
  9
$REALWORLDSCALE
290
1
  9
$INTERFERECOLOR
 62
256
  9
$CSHADOW
280
0
  9
$SHADOWPLANELOCATION
 40
0.0
  0
ENDSEC
  0
SECTION
  2
CLASSES
  0
CLASS
  1
ACDBDICTIONARYWDFLT
  2
AcDbDictionaryWithDefault
  3
ObjectDBX Classes
 90
0
 91
0
280
0
281
0
  0
CLASS
  1
SUN
  2
AcDbSun
  3
SCENEOE
 90
1153
 91
0
280
0
281
0
  0
CLASS
  1
VISUALSTYLE
  2
AcDbVisualStyle
  3
ObjectDBX Classes
 90
4095
 91
0
280
0
281
0
  0
CLASS
  1
MATERIAL
  2
AcDbMaterial
  3
ObjectDBX Classes
 90
1153
 91
0
280
0
281
0
  0
CLASS
  1
SCALE
  2
AcDbScale
  3
ObjectDBX Classes
 90
1153
 91
0
280
0
281
0
  0
CLASS
  1
TABLESTYLE
  2
AcDbTableStyle
  3
ObjectDBX Classes
 90
4095
 91
0
280
0
281
0
  0
CLASS
  1
MLEADERSTYLE
  2
AcDbMLeaderStyle
  3
ACDB_MLEADERSTYLE_CLASS
 90
4095
 91
0
280
0
281
0
  0
CLASS
  1
DICTIONARYVAR
  2
AcDbDictionaryVar
  3
ObjectDBX Classes
 90
0
 91
0
280
0
281
0
  0
CLASS
  1
CELLSTYLEMAP
  2
AcDbCellStyleMap
  3
ObjectDBX Classes
 90
1152
 91
0
280
0
281
0
  0
CLASS
  1
MENTALRAYRENDERSETTINGS
  2
AcDbMentalRayRenderSettings
  3
SCENEOE
 90
1024
 91
0
280
0
281
0
  0
CLASS
  1
ACDBDETAILVIEWSTYLE
  2
AcDbDetailViewStyle
  3
ObjectDBX Classes
 90
1025
 91
0
280
0
281
0
  0
CLASS
  1
ACDBSECTIONVIEWSTYLE
  2
AcDbSectionViewStyle
  3
ObjectDBX Classes
 90
1025
 91
0
280
0
281
0
  0
CLASS
  1
RASTERVARIABLES
  2
AcDbRasterVariables
  3
ISM
 90
0
 91
0
280
0
281
0
  0
CLASS
  1
LAYOUT
  2
AcDbLayout
  3
ObjectDBX Classes
 90
0
 91
0
280
0
281
0
  0
CLASS
  1
ACDBPLACEHOLDER
  2
AcDbPlaceHolder
  3
ObjectDBX Classes
 90
0
 91
0
280
0
281
0
  0
ENDSEC
  0
SECTION
  2
TABLES
  0
TABLE
  2
VPORT
  5
8
330
0
100
AcDbSymbolTable
 70
1
  0
VPORT
  5
33
330
8
100
AcDbSymbolTableRecord
100
AcDbViewportTableRecord
  2
*Active
 70
0
 10
0.0
 20
0.0
 11
1.0
 21
1.0
 12
-0.004999999999999671
 22
0.0
 13
0.0
 23
0.0
 14
0.5
 24
0.5
 15
0.5
 25
0.5
 16
0.0
 26
0.0
 36
1.0
 17
0.0
 27
0.0
 37
0.0
 40
0.7460610199934752
 41
1.34
 42
50.0
 43
0.0
 44
0.0
 50
0.0
 51
0.0
 71
0
 72
1000
 73
1
 74
3
 75
0
 76
0
 77
0
 78
0
281
0
 65
1
110
0.0
120
0.0
130
0.0
111
1.0
121
0.0
131
0.0
112
0.0
122
1.0
132
0.0
 79
0
146
0.0
  0
ENDTAB
  0
TABLE
  2
LTYPE
  5
2
330
0
100
AcDbSymbolTable
 70
3
  0
LTYPE
  5
24
330
2
100
AcDbSymbolTableRecord
100
AcDbLinetypeTableRecord
  2
ByBlock
 70
0
  3

 72
65
 73
0
 40
0.0
  0
LTYPE
  5
25
330
2
100
AcDbSymbolTableRecord
100
AcDbLinetypeTableRecord
  2
ByLayer
 70
0
  3

 72
65
 73
0
 40
0.0
  0
LTYPE
  5
26
330
2
100
AcDbSymbolTableRecord
100
AcDbLinetypeTableRecord
  2
Continuous
 70
0
  3

 72
65
 73
0
 40
0.0
  0
ENDTAB
  0
TABLE
  2
LAYER
  5
1
330
0
100
AcDbSymbolTable
 70
2
  0
LAYER
  5
27
330
1
100
AcDbSymbolTableRecord
100
AcDbLayerTableRecord
  2
0
 70
0
 62
7
  6
Continuous
370
-3
390
13
347
21
  0
LAYER
  5
28
330
1
100
AcDbSymbolTableRecord
100
AcDbLayerTableRecord
  2
Defpoints
 70
0
 62
7
  6
Continuous
290
0
370
-3
390
13
347
21
  0
ENDTAB
  0
TABLE
  2
STYLE
  5
5
330
0
100
AcDbSymbolTable
 70
1
  0
STYLE
  5
29
330
5
100
AcDbSymbolTableRecord
100
AcDbTextStyleTableRecord
  2
Standard
 70
0
 40
0.0
 41
1.0
 50
0.0
 71
0
 42
2.5
  3
txt
  4

  0
ENDTAB
  0
TABLE
  2
VIEW
  5
7
330
0
100
AcDbSymbolTable
 70
0
  0
ENDTAB
  0
TABLE
  2
UCS
  5
6
330
0
100
AcDbSymbolTable
 70
0
  0
ENDTAB
  0
TABLE
  2
APPID
  5
3
330
0
100
AcDbSymbolTable
 70
3
  0
APPID
  5
2A
330
3
100
AcDbSymbolTableRecord
100
AcDbRegAppTableRecord
  2
ACAD
 70
0
  0
APPID
  5
34
330
3
100
AcDbSymbolTableRecord
100
AcDbRegAppTableRecord
  2
HATCHBACKGROUNDCOLOR
 70
0
  0
APPID
  5
35
330
3
100
AcDbSymbolTableRecord
100
AcDbRegAppTableRecord
  2
EZDXF
 70
0
  0
ENDTAB
  0
TABLE
  2
DIMSTYLE
  5
4
330
0
100
AcDbSymbolTable
 70
1
100
AcDbDimStyleTable
  0
DIMSTYLE
105
2B
330
4
100
AcDbSymbolTableRecord
100
AcDbDimStyleTableRecord
  2
Standard
 70
0
 40
1.0
 41
2.5
 42
0.625
 43
3.75
 44
1.25
 45
0.0
 46
0.0
 47
0.0
 48
0.0
 49
2.5
140
2.5
141
2.5
142
0.0
143
0.03937007874
144
1.0
145
0.0
146
1.0
147
0.625
148
0.0
 69
0
 70
0
 71
0
 72
0
 73
0
 74
0
 75
0
 76
0
 77
1
 78
8
 79
3
170
0
171
3
172
1
173
0
174
0
175
0
176
0
177
0
178
0
179
2
271
2
272
2
273
2
274
3
275
0
276
0
277
2
278
44
279
0
280
0
281
0
282
0
283
0
284
8
285
0
286
0
288
0
289
3
290
0
371
-2
372
-2
  0
ENDTAB
  0
TABLE
  2
BLOCK_RECORD
  5
9
330
0
100
AcDbSymbolTable
 70
2
  0
BLOCK_RECORD
  5
17
330
9
100
AcDbSymbolTableRecord
100
AcDbBlockTableRecord
  2
*Model_Space
340
1A
 70
0
280
1
281
0
  0
BLOCK_RECORD
  5
1B
330
9
100
AcDbSymbolTableRecord
100
AcDbBlockTableRecord
  2
*Paper_Space
340
1E
 70
0
280
1
281
0
  0
ENDTAB
  0
ENDSEC
  0
SECTION
  2
BLOCKS
  0
BLOCK
  5
18
330
17
100
AcDbEntity
  8
0
100
AcDbBlockBegin
  2
*Model_Space
 70
0
 10
0.0
 20
0.0
 30
0.0
  3
*Model_Space
  1

  0
ENDBLK
  5
19
330
17
100
AcDbEntity
  8
0
100
AcDbBlockEnd
  0
BLOCK
  5
1C
330
1B
100
AcDbEntity
  8
0
100
AcDbBlockBegin
  2
*Paper_Space
 70
0
 10
0.0
 20
0.0
 30
0.0
  3
*Paper_Space
  1

  0
ENDBLK
  5
1D
330
1B
100
AcDbEntity
  8
0
100
AcDbBlockEnd
  0
ENDSEC
  0
SECTION
  2
ENTITIES
  0
SPLINE
  5
2F
330
17
100
AcDbEntity
  8
0
100
AcDbSpline
 70
0
 71
8
 72
165
 73
156
 74
0
 40
0.0
 40
0.0
 40
0.0
 40
0.0
 40
0.0
 40
0.0
 40
0.0
 40
0.0
 40
0.0
 40
0.01064504447635148
 40
0.01064504447635148
 40
0.01064504447635148
 40
0.01064504447635148
 40
0.01064504447635148
 40
0.01064504447635148
 40
0.01064504447635148
 40
0.02129017525328182
 40
0.02129017525328182
 40
0.02129017525328182
 40
0.02129017525328182
 40
0.02129017525328182
 40
0.02129017525328182
 40
0.02129017525328182
 40
0.039707802937960814
 40
0.039707802937960814
 40
0.039707802937960814
 40
0.039707802937960814
 40
0.039707802937960814
 40
0.039707802937960814
 40
0.039707802937960814
 40
0.05527571567858389
 40
0.05527571567858389
 40
0.05527571567858389
 40
0.05527571567858389
 40
0.05527571567858389
 40
0.05527571567858389
 40
0.05527571567858389
 40
0.06894827441085932
 40
0.06894827441085932
 40
0.06894827441085932
 40
0.06894827441085932
 40
0.06894827441085932
 40
0.06894827441085932
 40
0.06894827441085932
 40
0.08168790333708548
 40
0.08168790333708548
 40
0.08168790333708548
 40
0.08168790333708548
 40
0.08168790333708548
 40
0.08168790333708548
 40
0.08168790333708548
 40
0.1043284210394319
 40
0.1043284210394319
 40
0.1043284210394319
 40
0.1043284210394319
 40
0.1043284210394319
 40
0.1043284210394319
 40
0.1043284210394319
 40
0.12114270941845898
 40
0.12114270941845898
 40
0.12114270941845898
 40
0.12114270941845898
 40
0.12114270941845898
 40
0.12114270941845898
 40
0.12114270941845898
 40
0.14843579775088578
 40
0.14843579775088578
 40
0.14843579775088578
 40
0.14843579775088578
 40
0.14843579775088578
 40
0.14843579775088578
 40
0.14843579775088578
 40
0.17662797541622108
 40
0.17662797541622108
 40
0.17662797541622108
 40
0.17662797541622108
 40
0.17662797541622108
 40
0.17662797541622108
 40
0.17662797541622108
 40
0.22188399149689164
 40
0.22188399149689164
 40
0.22188399149689164
 40
0.22188399149689164
 40
0.22188399149689164
 40
0.22188399149689164
 40
0.22188399149689164
 40
0.26866528378524074
 40
0.26866528378524074
 40
0.26866528378524074
 40
0.26866528378524074
 40
0.26866528378524074
 40
0.26866528378524074
 40
0.26866528378524074
 40
0.29729161325863257
 40
0.29729161325863257
 40
0.29729161325863257
 40
0.29729161325863257
 40
0.29729161325863257
 40
0.29729161325863257
 40
0.29729161325863257
 40
0.31165473730290416
 40
0.31165473730290416
 40
0.31165473730290416
 40
0.31165473730290416
 40
0.31165473730290416
 40
0.31165473730290416
 40
0.31165473730290416
 40
0.32811108120772525
 40
0.32811108120772525
 40
0.32811108120772525
 40
0.32811108120772525
 40
0.32811108120772525
 40
0.32811108120772525
 40
0.32811108120772525
 40
0.3394341991045028
 40
0.3394341991045028
 40
0.3394341991045028
 40
0.3394341991045028
 40
0.3394341991045028
 40
0.3394341991045028
 40
0.3394341991045028
 40
0.3497957334041425
 40
0.3497957334041425
 40
0.3497957334041425
 40
0.3497957334041425
 40
0.3497957334041425
 40
0.3497957334041425
 40
0.3497957334041425
 40
0.3598477744176568
 40
0.3598477744176568
 40
0.3598477744176568
 40
0.3598477744176568
 40
0.3598477744176568
 40
0.3598477744176568
 40
0.3598477744176568
 40
0.37674857095204184
 40
0.37674857095204184
 40
0.37674857095204184
 40
0.37674857095204184
 40
0.37674857095204184
 40
0.37674857095204184
 40
0.37674857095204184
 40
0.431459261358196
 40
0.431459261358196
 40
0.431459261358196
 40
0.431459261358196
 40
0.431459261358196
 40
0.431459261358196
 40
0.431459261358196
 40
0.5350884199407692
 40
0.5350884199407692
 40
0.5350884199407692
 40
0.5350884199407692
 40
0.5350884199407692
 40
0.5350884199407692
 40
0.5350884199407692
 40
1.0
 40
1.0
 40
1.0
 40
1.0
 40
1.0
 40
1.0
 40
1.0
 40
1.0
 40
1.0
 10
-0.5
 20
0.012699999253491566
 30
-1.0
 10
-0.498638750931826
 20
0.01276227589616307
 30
-1.0
 10
-0.49727749469263577
 20
0.012829374061579642
 30
-1.0
 10
-0.49591624679174334
 20
0.012901545203448198
 30
-1.0
 10
-0.49455500472197106
 20
0.0129787278443267
 30
-1.0
 10
-0.49319375842334057
 20
0.013060737852276632
 30
-1.0
 10
-0.4918325007467629
 20
0.013147458717515484
 30
-1.0
 10
-0.49047123791772895
 20
0.013239031829069225
 30
-1.0
 10
-0.48774875104656135
 20
0.013433062460291311
 30
-1.0
 10
-0.48638749561403655
 20
0.013535910032621225
 30
-1.0
 10
-0.4850262470813588
 20
0.01364474922050055
 30
-1.0
 10
-0.48366500362280235
 20
0.01375953614242962
 30
-1.0
 10
-0.4823037569249075
 20
0.013880150472502358
 30
-1.0
 10
-0.4809425009034047
 20
0.014006522629585471
 30
-1.0
 10
-0.47958124042014016
 20
0.0141387609664977
 30
-1.0
 10
-0.4758648556835198
 20
0.014516935274407578
 30
-1.0
 10
-0.47351066564681993
 20
0.014775405565663403
 30
-1.0
 10
-0.47115750808627715
 20
0.015052617893899566
 30
-1.0
 10
-0.4688054619939952
 20
0.015348496134739278
 30
-1.0
 10
-0.46645460715780507
 20
0.015662959978485887
 30
-1.0
 10
-0.4641050241612646
 20
0.015995924930122883
 30
-1.0
 10
-0.46175679438365885
 20
0.016347302309313923
 30
-1.0
 10
-0.45742631942992423
 20
0.017029493878803564
 30
-1.0
 10
-0.45544368449905626
 20
0.017355393040280324
 30
-1.0
 10
-0.45346194564427705
 20
0.017692521791044986
 30
-1.0
 10
-0.451481280420616
 20
0.01804207059285296
 30
-1.0
 10
-0.4495018159562429
 20
0.018404888973683985
 30
-1.0
 10
-0.4475234937805838
 20
0.018780082936260517
 30
-1.0
 10
-0.44554617702556804
 20
0.019165916114403776
 30
-1.0
 10
-0.44183441752997815
 20
0.019911767494201874
 30
-1.0
 10
-0.4400996613156633
 20
0.020268887448357215
 30
-1.0
 10
-0.43836589063485654
 20
0.020635412410592722
 30
-1.0
 10
-0.43663302067969745
 20
0.021010523551715694
 30
-1.0
 10
-0.4349009645520256
 20
0.021393300557931393
 30
-1.0
 10
-0.43316973737658493
 20
0.021783539463116612
 30
-1.0
 10
-0.4314394225320678
 20
0.02218163309787674
 30
-1.0
 10
-0.4280985824338649
 20
0.022965700430691918
 30
-1.0
 10
-0.42648798176062763
 20
0.023350899074873817
 30
-1.0
 10
-0.4248781228082073
 20
0.023742365100920433
 30
-1.0
 10
-0.4232689853506222
 20
0.024139797590909947
 30
-1.0
 10
-0.4216605832318736
 20
0.024543179223538412
 30
-1.0
 10
-0.4200529434898317
 20
0.02495261580164799
 30
-1.0
 10
-0.4184460854801198
 20
0.0253681757797551
 30
-1.0
 10
-0.4139857091132947
 20
0.02653890397258936
 30
-1.0
 10
-0.41113374608352937
 20
0.027306145076425807
 30
-1.0
 10
-0.40828379102297124
 20
0.028088070990508834
 30
-1.0
 10
-0.40543676943154944
 20
0.028891552432038205
 30
-1.0
 10
-0.4025919085539594
 20
0.029710545331480383
 30
-1.0
 10
-0.3997486699609586
 20
0.03054040635647607
 30
-1.0
 10
-0.39690833252995705
 20
0.03139015954616149
 30
-1.0
 10
-0.39196207374576403
 20
0.03289411740743868
 30
-1.0
 10
-0.3898553109504946
 20
0.03354277404029431
 30
-1.0
 10
-0.3877497939444553
 20
0.03419956356732849
 30
-1.0
 10
-0.38564551580981155
 20
0.03486434097571908
 30
-1.0
 10
-0.3835424244887539
 20
0.03553667814378132
 30
-1.0
 10
-0.38144046689162303
 20
0.03621613738779213
 30
-1.0
 10
-0.37933963300503387
 20
0.03690254500881426
 30
-1.0
 10
-0.3738318587941224
 20
0.03872231645649173
 30
-1.0
 10
-0.3704270360049268
 20
0.03986849692554904
 30
-1.0
 10
-0.36702412382796645
 20
0.04102683261201407
 30
-1.0
 10
-0.363626065984894
 20
0.042212301596372605
 30
-1.0
 10
-0.3602290994123011
 20
0.04340573534001133
 30
-1.0
 10
-0.35683598615861023
 20
0.04461965828880287
 30
-1.0
 10
-0.3534455189532494
 20
0.045849073754582366
 30
-1.0
 10
-0.3465585589823745
 20
0.04837915884002291
 30
-1.0
 10
-0.3430623057806748
 20
0.04968132324864209
 30
-1.0
 10
-0.3395690247569042
 20
0.05099956860753942
 30
-1.0
 10
-0.3360786710668223
 20
0.05233341423224214
 30
-1.0
 10
-0.33259120815493803
 20
0.05368244078138058
 30
-1.0
 10
-0.32910660775451045
 20
0.05504629025668814
 30
-1.0
 10
-0.3256248498875486
 20
0.05642466600300122
 30
-1.0
 10
-0.3165613107375229
 20
0.06005293676681594
 30
-1.0
 10
-0.31098382995398893
 20
0.062324492594235684
 30
-1.0
 10
-0.30541359613545344
 20
0.06463187020561775
 30
-1.0
 10
-0.2998503582567382
 20
0.06697318497892402
 30
-1.0
 10
-0.29429391352789636
 20
0.0693468256330666
 30
-1.0
 10
-0.2887442472373052
 20
0.07175215368094269
 30
-1.0
 10
-0.28320139755619617
 20
0.07418887435741697
 30
-1.0
 10
-0.27194209981975137
 20
0.07920440287486111
 30
-1.0
 10
-0.2662262914384491
 20
0.08178600618299935
 30
-1.0
 10
-0.2605167246853493
 20
0.08439579010498062
 30
-1.0
 10
-0.2548160099189918
 20
0.08704385655642295
 30
-1.0
 10
-0.24911892251504242
 20
0.0897083743394876
 30
-1.0
 10
-0.2434309468457096
 20
0.09241113791341553
 30
-1.0
 10
-0.23774857745381067
 20
0.09513792180105327
 30
-1.0
 10
-0.22859935606806625
 20
0.09957598518042493
 30
-1.0
 10
-0.2251285604254937
 20
0.10127089378802864
 30
-1.0
 10
-0.221659833921392
 20
0.10297434993662058
 30
-1.0
 10
-0.21819419774236998
 20
0.1046904555265877
 30
-1.0
 10
-0.21473083458631625
 20
0.10641586875958799
 30
-1.0
 10
-0.21126891262457426
 20
0.10814712841266098
 30
-1.0
 10
-0.2078094988438853
 20
0.10988840941893527
 30
-1.0
 10
-0.20261810878067318
 20
0.11251839105976529
 30
-1.0
 10
-0.20088430886907863
 20
0.1133998082938299
 30
-1.0
 10
-0.19915112719448008
 20
0.1142836781671364
 30
-1.0
 10
-0.1974185030145454
 20
0.11516975785898266
 30
-1.0
 10
-0.19568638209508332
 20
0.11605782818986295
 30
-1.0
 10
-0.19395471671004383
 20
0.11694769362146794
 30
-1.0
 10
-0.1922234656415177
 20
0.11783918225668476
 30
-1.0
 10
-0.18850947296304973
 20
0.11975524609060031
 30
-1.0
 10
-0.1865264238039759
 20
0.12077876352777923
 30
-1.0
 10
-0.1845443896260871
 20
0.1218062516177239
 30
-1.0
 10
-0.18256388690153114
 20
0.12283964568165333
 30
-1.0
 10
-0.1805850056510312
 20
0.12387926289541532
 30
-1.0
 10
-0.1786074094438864
 20
0.1249238022894866
 30
-1.0
 10
-0.17663033539797152
 20
0.12597034474897276
 30
-1.0
 10
-0.17329176961792006
 20
0.12773270386565969
 30
-1.0
 10
-0.17193106374991565
 20
0.12845151013553033
 30
-1.0
 10
-0.1705697224923465
 20
0.12916788196514092
 30
-1.0
 10
-0.16920749892950523
 20
0.12988087185495417
 30
-1.0
 10
-0.16784465331335502
 20
0.13059147466397505
 30
-1.0
 10
-0.16648195306352934
 20
0.13130262760975062
 30
-1.0
 10
-0.1651206727673319
 20
0.13201921026837013
 30
-1.0
 10
-0.16251984655534088
 20
0.13341498469910223
 30
-1.0
 10
-0.16128125253820239
 20
0.13409650920943772
 30
-1.0
 10
-0.16003992066820708
 20
0.13476796658279813
 30
-1.0
 10
-0.15880131585237992
 20
0.13545063254460385
 30
-1.0
 10
-0.15756981197007108
 20
0.13615990721452237
 30
-1.0
 10
-0.1563423769841492
 20
0.13688243926535715
 30
-1.0
 10
-0.15510939055820092
 20
0.13758217709467171
 30
-1.0
 10
-0.1526530389179975
 20
0.13886900710033387
 30
-1.0
 10
-0.1514322672774806
 20
0.1394652472724574
 30
-1.0
 10
-0.15020440320588233
 20
0.14003617780818692
 30
-1.0
 10
-0.14896964244375732
 20
0.14057426977695886
 30
-1.0
 10
-0.14772665491967246
 20
0.14106641001925846
 30
-1.0
 10
-0.1464749871453603
 20
0.14150795613089906
 30
-1.0
 10
-0.1452174646108732
 20
0.1419167914473016
 30
-1.0
 10
-0.14185274307535511
 20
0.14307134145797537
 30
-1.0
 10
-0.13974566671585154
 20
0.1438102439528165
 30
-1.0
 10
-0.13763966222692126
 20
0.14455905645372036
 30
-1.0
 10
-0.135535624910335
 20
0.14531156326354738
 30
-1.0
 10
-0.13344328616560708
 20
0.14613729008998932
 30
-1.0
 10
-0.13133579739681456
 20
0.14687382158582393
 30
-1.0
 10
-0.1292349965429434
 20
0.14764939890413886
 30
-1.0
 10
-0.12032676792364673
 20
0.15089456278821478
 30
-1.0
 10
-0.1135202179358401
 20
0.15336984288032
 30
-1.0
 10
-0.10671347837052884
 20
0.1558440735600708
 30
-1.0
 10
-0.09990689712336646
 20
0.15831917908282112
 30
-1.0
 10
-0.09310063583144824
 20
0.1607960542626183
 30
-1.0
 10
-0.08629466987331116
 20
0.16327456447220304
 30
-1.0
 10
-0.07948878836893387
 20
0.16575354564300934
 30
-1.0
 10
-0.05979077775885028
 20
0.1729230540741068
 30
-1.0
 10
-0.047235874804524944
 20
0.1774926630787756
 30
-1.0
 10
-0.034905581474948016
 20
0.18198051560596606
 30
-1.0
 10
-0.022687593491805328
 20
0.1864274932034626
 30
-1.0
 10
-0.010469606140281047
 20
0.19087447464003898
 30
-1.0
 10
0.0018606857309421967
 20
0.19536233590545815
 30
-1.0
 10
0.014415587709683375
 20
0.19993195021047264
 30
-1.0
 10
0.08514398009728075
 20
0.22567497821280988
 30
-1.0
 10
0.14298055436810095
 20
0.24672576847319005
 30
-1.0
 10
0.20081712863693466
 20
0.2677765587445954
 30
-1.0
 10
0.2586537029065828
 20
0.2888273490114801
 30
-1.0
 10
0.3164902771784368
 20
0.3098781392661227
 30
-1.0
 10
0.3743268514524783
 20
0.33092892950862524
 30
-1.0
 10
0.4321634257272789
 20
0.35197971974691367
 30
-1.0
 10
0.49000000000000066
 20
0.37303050999673765
 30
-1.0
  0
LINE
  5
30
330
17
100
AcDbEntity
  8
0
100
AcDbLine
 10
-0.5
 20
0.012699999253491568
 30
-1.0
 11
-0.5
 21
-0.012699999253491575
 31
-1.0
  0
SPLINE
  5
31
330
17
100
AcDbEntity
  8
0
100
AcDbSpline
 70
0
 71
8
 72
165
 73
156
 74
0
 40
0.0
 40
0.0
 40
0.0
 40
0.0
 40
0.0
 40
0.0
 40
0.0
 40
0.0
 40
0.0
 40
0.02824216928522576
 40
0.02824216928522576
 40
0.02824216928522576
 40
0.02824216928522576
 40
0.02824216928522576
 40
0.02824216928522576
 40
0.02824216928522576
 40
0.05648456753291024
 40
0.05648456753291024
 40
0.05648456753291024
 40
0.05648456753291024
 40
0.05648456753291024
 40
0.05648456753291024
 40
0.05648456753291024
 40
0.10534803259954542
 40
0.10534803259954542
 40
0.10534803259954542
 40
0.10534803259954542
 40
0.10534803259954542
 40
0.10534803259954542
 40
0.10534803259954542
 40
0.14665097201096458
 40
0.14665097201096458
 40
0.14665097201096458
 40
0.14665097201096458
 40
0.14665097201096458
 40
0.14665097201096458
 40
0.14665097201096458
 40
0.1829253829951158
 40
0.1829253829951158
 40
0.1829253829951158
 40
0.1829253829951158
 40
0.1829253829951158
 40
0.1829253829951158
 40
0.1829253829951158
 40
0.21672465528236756
 40
0.21672465528236756
 40
0.21672465528236756
 40
0.21672465528236756
 40
0.21672465528236756
 40
0.21672465528236756
 40
0.21672465528236756
 40
0.27679179122313846
 40
0.27679179122313846
 40
0.27679179122313846
 40
0.27679179122313846
 40
0.27679179122313846
 40
0.27679179122313846
 40
0.27679179122313846
 40
0.32140146663281
 40
0.32140146663281
 40
0.32140146663281
 40
0.32140146663281
 40
0.32140146663281
 40
0.32140146663281
 40
0.32140146663281
 40
0.39381228364408627
 40
0.39381228364408627
 40
0.39381228364408627
 40
0.39381228364408627
 40
0.39381228364408627
 40
0.39381228364408627
 40
0.39381228364408627
 40
0.46860917834870786
 40
0.46860917834870786
 40
0.46860917834870786
 40
0.46860917834870786
 40
0.46860917834870786
 40
0.46860917834870786
 40
0.46860917834870786
 40
0.5886897625124912
 40
0.5886897625124912
 40
0.5886897625124912
 40
0.5886897625124912
 40
0.5886897625124912
 40
0.5886897625124912
 40
0.5886897625124912
 40
0.7136655378045429
 40
0.7136655378045429
 40
0.7136655378045429
 40
0.7136655378045429
 40
0.7136655378045429
 40
0.7136655378045429
 40
0.7136655378045429
 40
0.7841806805262483
 40
0.7841806805262483
 40
0.7841806805262483
 40
0.7841806805262483
 40
0.7841806805262483
 40
0.7841806805262483
 40
0.7841806805262483
 40
0.8222319875106099
 40
0.8222319875106099
 40
0.8222319875106099
 40
0.8222319875106099
 40
0.8222319875106099
 40
0.8222319875106099
 40
0.8222319875106099
 40
0.8603323682012173
 40
0.8603323682012173
 40
0.8603323682012173
 40
0.8603323682012173
 40
0.8603323682012173
 40
0.8603323682012173
 40
0.8603323682012173
 40
0.8957582151244449
 40
0.8957582151244449
 40
0.8957582151244449
 40
0.8957582151244449
 40
0.8957582151244449
 40
0.8957582151244449
 40
0.8957582151244449
 40
0.9258685501282666
 40
0.9258685501282666
 40
0.9258685501282666
 40
0.9258685501282666
 40
0.9258685501282666
 40
0.9258685501282666
 40
0.9258685501282666
 40
0.9461838311321678
 40
0.9461838311321678
 40
0.9461838311321678
 40
0.9461838311321678
 40
0.9461838311321678
 40
0.9461838311321678
 40
0.9461838311321678
 40
0.958383646759585
 40
0.958383646759585
 40
0.958383646759585
 40
0.958383646759585
 40
0.958383646759585
 40
0.958383646759585
 40
0.958383646759585
 40
0.9673236764472538
 40
0.9673236764472538
 40
0.9673236764472538
 40
0.9673236764472538
 40
0.9673236764472538
 40
0.9673236764472538
 40
0.9673236764472538
 40
0.9764507685499778
 40
0.9764507685499778
 40
0.9764507685499778
 40
0.9764507685499778
 40
0.9764507685499778
 40
0.9764507685499778
 40
0.9764507685499778
 40
1.0
 40
1.0
 40
1.0
 40
1.0
 40
1.0
 40
1.0
 40
1.0
 40
1.0
 40
1.0
 10
-0.5
 20
-0.012699999253491578
 30
-1.0
 10
-0.498638750931826
 20
-0.01276227589616307
 30
-1.0
 10
-0.49727749469263566
 20
-0.01282937406157989
 30
-1.0
 10
-0.49591624679174323
 20
-0.012901545203448437
 30
-1.0
 10
-0.494555004721971
 20
-0.012978727844326679
 30
-1.0
 10
-0.4931937584233406
 20
-0.013060737852276369
 30
-1.0
 10
-0.49183250074676294
 20
-0.013147458717515235
 30
-1.0
 10
-0.49047123791772895
 20
-0.013239031829069247
 30
-1.0
 10
-0.48774875104656157
 20
-0.013433062460291313
 30
-1.0
 10
-0.4863874956140366
 20
-0.01353591003262134
 30
-1.0
 10
-0.4850262470813588
 20
-0.013644749220500692
 30
-1.0
 10
-0.48366500362280235
 20
-0.013759536142429687
 30
-1.0
 10
-0.4823037569249075
 20
-0.013880150472502316
 30
-1.0
 10
-0.48094250090340473
 20
-0.01400652262958538
 30
-1.0
 10
-0.47958124042014016
 20
-0.014138760966497655
 30
-1.0
 10
-0.4758648556835198
 20
-0.014516935274407535
 30
-1.0
 10
-0.47351066564681993
 20
-0.01477540556566335
 30
-1.0
 10
-0.47115750808627715
 20
-0.01505261789389951
 30
-1.0
 10
-0.46880546199399514
 20
-0.015348496134739223
 30
-1.0
 10
-0.466454607157805
 20
-0.015662959978485838
 30
-1.0
 10
-0.4641050241612647
 20
-0.015995924930122852
 30
-1.0
 10
-0.4617567943836591
 20
-0.016347302309313916
 30
-1.0
 10
-0.457426319429923
 20
-0.017029493878803783
 30
-1.0
 10
-0.45544368449905853
 20
-0.017355393040278427
 30
-1.0
 10
-0.4534619456442772
 20
-0.017692521791045468
 30
-1.0
 10
-0.45148128042061425
 20
-0.01804207059285518
 30
-1.0
 10
-0.4495018159562429
 20
-0.018404888973684145
 30
-1.0
 10
-0.4475234937805858
 20
-0.018780082936258297
 30
-1.0
 10
-0.44554617702556665
 20
-0.01916591611440399
 30
-1.0
 10
-0.44183441752997776
 20
-0.019911767494201957
 30
-1.0
 10
-0.4400996613156638
 20
-0.020268887448356927
 30
-1.0
 10
-0.4383658906348568
 20
-0.02063541241059293
 30
-1.0
 10
-0.4366330206796972
 20
-0.02101052355171621
 30
-1.0
 10
-0.4349009645520256
 20
-0.021393300557931434
 30
-1.0
 10
-0.4331697373765852
 20
-0.021783539463116158
 30
-1.0
 10
-0.43143942253206763
 20
-0.022181633097876827
 30
-1.0
 10
-0.4280985824338648
 20
-0.02296570043069199
 30
-1.0
 10
-0.42648798176062763
 20
-0.023350899074873754
 30
-1.0
 10
-0.4248781228082074
 20
-0.023742365100920346
 30
-1.0
 10
-0.42326898535062224
 20
-0.024139797590909954
 30
-1.0
 10
-0.4216605832318734
 20
-0.02454317922353852
 30
-1.0
 10
-0.4200529434898314
 20
-0.024952615801648096
 30
-1.0
 10
-0.4184460854801198
 20
-0.025368175779755107
 30
-1.0
 10
-0.4139857091132922
 20
-0.026538903972590115
 30
-1.0
 10
-0.4111337460835366
 20
-0.027306145076423524
 30
-1.0
 10
-0.4082837910229625
 20
-0.028088070990512783
 30
-1.0
 10
-0.40543676943155144
 20
-0.02889155243203745
 30
-1.0
 10
-0.4025919085539681
 20
-0.029710545331476504
 30
-1.0
 10
-0.3997486699609472
 20
-0.030540406356480185
 30
-1.0
 10
-0.39690833252996205
 20
-0.03139015954615999
 30
-1.0
 10
-0.39196207374576403
 20
-0.03289411740743871
 30
-1.0
 10
-0.3898553109504943
 20
-0.03354277404029423
 30
-1.0
 10
-0.38774979394445525
 20
-0.034199563567328416
 30
-1.0
 10
-0.3856455158098115
 20
-0.03486434097571913
 30
-1.0
 10
-0.3835424244887539
 20
-0.03553667814378148
 30
-1.0
 10
-0.38144046689162303
 20
-0.03621613738779225
 30
-1.0
 10
-0.37933963300503387
 20
-0.03690254500881422
 30
-1.0
 10
-0.37383185726140966
 20
-0.038722316962900794
 30
-1.0
 10
-0.37042703294262347
 20
-0.0398684979574947
 30
-1.0
 10
-0.3670241192362145
 20
-0.04102683417083969
 30
-1.0
 10
-0.3636260598732811
 20
-0.042212303736166856
 30
-1.0
 10
-0.36022909177266993
 20
-0.043405738016113526
 30
-1.0
 10
-0.35683597700336844
 20
-0.04461966156837177
 30
-1.0
 10
-0.3534455082797483
 20
-0.04584907762406304
 30
-1.0
 10
-0.3465585115705723
 20
-0.04837917631123397
 30
-1.0
 10
-0.3430622232030976
 20
-0.0496813540376654
 30
-1.0
 10
-0.33956890707338644
 20
-0.05099961303586939
 30
-1.0
 10
-0.33607851833777197
 20
-0.052333472614055306
 30
-1.0
 10
-0.33259102043991834
 20
-0.053682513418938343
 30
-1.0
 10
-0.3291063851108205
 20
-0.05504637743573971
 30
-1.0
 10
-0.32562459236880403
 20
-0.056424767988186436
 30
-1.0
 10
-0.3165604284493783
 20
-0.06005329173160082
 30
-1.0
 10
-0.31098235924914797
 20
-0.06232509315996258
 30
-1.0
 10
-0.3054115385156587
 20
-0.06463272370750071
 30
-1.0
 10
-0.29984771515338404
 20
-0.066974298192047
 30
-1.0
 10
-0.29429068634065675
 20
-0.06934820498365062
 30
-1.0
 10
-0.28874043738022215
 20
-0.07175380551221967
 30
-1.0
 10
-0.28319700643413437
 20
-0.0741908048645147
 30
-1.0
 10
-0.2718974239140425
 20
-0.07922433066412365
 30
-1.0
 10
-0.26614201075895344
 20
-0.08182410812154206
 30
-1.0
 10
-0.2603929116255376
 20
-0.08445236904854458
 30
-1.0
 10
-0.25465284322241977
 20
-0.08711971873083896
 30
-1.0
 10
-0.24891632415278364
 20
-0.08980313850123284
 30
-1.0
 10
-0.24318920213739126
 20
-0.0925260350533117
 30
-1.0
 10
-0.2374676483886174
 20
-0.09527277145221236
 30
-1.0
 10
-0.22852798852464268
 20
-0.09961147033056816
 30
-1.0
 10
-0.22530539750868073
 20
-0.10118487106835732
 30
-1.0
 10
-0.22208492132180713
 20
-0.10276695581483572
 30
-1.0
 10
-0.21886664914393128
 20
-0.10435808765907569
 30
-1.0
 10
-0.215650444955271
 20
-0.10595769692548865
 30
-1.0
 10
-0.21243600412169752
 20
-0.10756446276364637
 30
-1.0
 10
-0.20922318214359956
 20
-0.10917768541216798
 30
-1.0
 10
-0.2042801022248155
 20
-0.11167519941574279
 30
-1.0
 10
-0.20254763011361793
 20
-0.11255339543959865
 30
-1.0
 10
-0.20081514343858042
 20
-0.113434458767504
 30
-1.0
 10
-0.19908262578683458
 20
-0.11431831028836113
 30
-1.0
 10
-0.19735008012873656
 20
-0.11520477022071182
 30
-1.0
 10
-0.1956175288178676
 20
-0.11609355811273732
 30
-1.0
 10
-0.1938850135910339
 20
-0.11698429284225825
 30
-1.0
 10
-0.19041794329443468
 20
-0.11876984303630368
 30
-1.0
 10
-0.1886835306455396
 20
-0.11966415275074337
 30
-1.0
 10
-0.1869496295193258
 20
-0.12056046906334034
 30
-1.0
 10
-0.1852164444195194
 20
-0.12145957619272692
 30
-1.0
 10
-0.18348411245582885
 20
-0.12236199527288125
 30
-1.0
 10
-0.18175270334394453
 20
-0.12326798435312744
 30
-1.0
 10
-0.18002221940553892
 20
-0.12417753839813535
 30
-1.0
 10
-0.17668438619651414
 20
-0.12593916075159373
 30
-1.0
 10
-0.1750772571633756
 20
-0.12679208492695218
 30
-1.0
 10
-0.1734697858538629
 20
-0.12764370172201928
 30
-1.0
 10
-0.17186119382344733
 20
-0.12849102196312917
 30
-1.0
 10
-0.17025134679805962
 20
-0.12933352739492698
 30
-1.0
 10
-0.16864075467409037
 20
-0.13017317068036888
 30
-1.0
 10
-0.16703057151838951
 20
-0.13101437540072203
 30
-1.0
 10
-0.16405589021775746
 20
-0.1325862084008669
 30
-1.0
 10
-0.16289382952919282
 20
-0.1332010939996382
 30
-1.0
 10
-0.1617962346779481
 20
-0.1338177506834278
 30
-1.0
 10
-0.16064690746379484
 20
-0.13444730856927362
 30
-1.0
 10
-0.1593760378192069
 20
-0.13512277216566235
 30
-1.0
 10
-0.15795511639894277
 20
-0.13592170287947383
 30
-1.0
 10
-0.15636435225090353
 20
-0.13689178192390933
 30
-1.0
 10
-0.1532967191911417
 20
-0.13854549547218384
 30
-1.0
 10
-0.1520588524952763
 20
-0.1391779325451377
 30
-1.0
 10
-0.15081828535524386
 20
-0.13975729432699271
 30
-1.0
 10
-0.14958017779980773
 20
-0.1403050229987244
 30
-1.0
 10
-0.1483456816251245
 20
-0.14082491574545478
 30
-1.0
 10
-0.14711009007340964
 20
-0.14129307958344808
 30
-1.0
 10
-0.14586901557706475
 20
-0.14169619871020428
 30
-1.0
 10
-0.14389009556826665
 20
-0.14237148489968088
 30
-1.0
 10
-0.14314759556826662
 20
-0.14262663665306727
 30
-1.0
 10
-0.14240509556826653
 20
-0.14288356963780938
 30
-1.0
 10
-0.14166259556826635
 20
-0.14314228385390704
 30
-1.0
 10
-0.14092009556826626
 20
-0.1434027793013603
 30
-1.0
 10
-0.14017759556826628
 20
-0.14366505598016913
 30
-1.0
 10
-0.1394350955682664
 20
-0.14392911389033353
 30
-1.0
 10
-0.1381484912763805
 20
-0.14438976005926404
 30
-1.0
 10
-0.13646340312091904
 20
-0.14499249318742372
 30
-1.0
 10
-0.13455774949022856
 20
-0.14569258241122707
 30
-1.0
 10
-0.13283254573251915
 20
-0.1463349871875589
 30
-1.0
 10
-0.13119407618757425
 20
-0.1469399827614785
 30
-1.0
 10
-0.12907619235423198
 20
-0.14770983771738816
 30
-1.0
 10
-0.12546023719363747
 20
-0.1490223827551846
 30
-1.0
 10
-0.11218753170308401
 20
-0.15385054823331437
 30
-1.0
 10
-0.09333869065372022
 20
-0.16071582110575178
 30
-1.0
 10
-0.07009019737689128
 20
-0.16917247892619708
 30
-1.0
 10
-0.04745357227114949
 20
-0.1774123686298726
 30
-1.0
 10
-0.027770876067177812
 20
-0.18457932414862788
 30
-1.0
 10
-0.010789031323636997
 20
-0.1907573834357764
 30
-1.0
 10
0.00626486262619258
 20
-0.19696532904363595
 30
-1.0
 10
0.08629022887029414
 20
-0.22609217869404655
 30
-1.0
 10
0.14396305331727055
 20
-0.24708336888083396
 30
-1.0
 10
0.20163587776741382
 20
-0.2680745590500398
 30
-1.0
 10
0.259308702217162
 20
-0.28906574922144157
 30
-1.0
 10
0.31698152666463986
 20
-0.31005693940545037
 30
-1.0
 10
0.374654351109659
 20
-0.33104812960311125
 30
-1.0
 10
0.4323271755537176
 20
-0.3520393198061027
 30
-1.0
 10
0.49000000000000066
 20
-0.37303050999673687
 30
-1.0
  0
LINE
  5
32
330
17
100
AcDbEntity
  8
0
100
AcDbLine
 10
0.4900000000000006
 20
-0.3730305099967376
 30
-1.0
 11
0.4900000000000006
 21
0.37303050999673765
 31
-1.0
  0
ENDSEC
  0
SECTION
  2
OBJECTS
  0
DICTIONARY
  5
A
330
0
100
AcDbDictionary
281
1
  3
ACAD_COLOR
350
B
  3
ACAD_GROUP
350
C
  3
ACAD_LAYOUT
350
D
  3
ACAD_MATERIAL
350
E
  3
ACAD_MLEADERSTYLE
350
F
  3
ACAD_MLINESTYLE
350
10
  3
ACAD_PLOTSETTINGS
350
11
  3
ACAD_PLOTSTYLENAME
350
12
  3
ACAD_SCALELIST
350
14
  3
ACAD_TABLESTYLE
350
15
  3
ACAD_VISUALSTYLE
350
16
  3
EZDXF_META
350
2D
  0
DICTIONARY
  5
B
330
A
100
AcDbDictionary
281
1
  0
DICTIONARY
  5
C
330
A
100
AcDbDictionary
281
1
  0
DICTIONARY
  5
D
330
A
100
AcDbDictionary
281
1
  3
Model
350
1A
  3
Layout1
350
1E
  0
DICTIONARY
  5
E
330
A
100
AcDbDictionary
281
1
  3
ByBlock
350
1F
  3
ByLayer
350
20
  3
Global
350
21
  0
DICTIONARY
  5
F
330
A
100
AcDbDictionary
281
1
  3
Standard
350
2C
  0
DICTIONARY
  5
10
330
A
100
AcDbDictionary
281
1
  3
Standard
350
22
  0
DICTIONARY
  5
11
330
A
100
AcDbDictionary
281
1
  0
ACDBDICTIONARYWDFLT
  5
12
330
A
100
AcDbDictionary
281
1
  3
Normal
350
13
100
AcDbDictionaryWithDefault
340
13
  0
ACDBPLACEHOLDER
  5
13
330
12
  0
DICTIONARY
  5
14
330
A
100
AcDbDictionary
281
1
  0
DICTIONARY
  5
15
330
A
100
AcDbDictionary
281
1
  0
DICTIONARY
  5
16
330
A
100
AcDbDictionary
281
1
  0
LAYOUT
  5
1A
330
D
100
AcDbPlotSettings
  1

  4
A3
  6

 40
7.5
 41
20.0
 42
7.5
 43
20.0
 44
420.0
 45
297.0
 46
0.0
 47
0.0
 48
0.0
 49
0.0
140
0.0
141
0.0
142
1.0
143
1.0
 70
1024
 72
1
 73
0
 74
5
  7

 75
16
 76
0
 77
2
 78
300
147
1.0
148
0.0
149
0.0
100
AcDbLayout
  1
Model
 70
1
 71
0
 10
0.0
 20
0.0
 11
420.0
 21
297.0
 12
0.0
 22
0.0
 32
0.0
 14
1e+20
 24
1e+20
 34
1e+20
 15
-1e+20
 25
-1e+20
 35
-1e+20
146
0.0
 13
0.0
 23
0.0
 33
0.0
 16
1.0
 26
0.0
 36
0.0
 17
0.0
 27
1.0
 37
0.0
 76
1
330
17
  0
LAYOUT
  5
1E
330
D
100
AcDbPlotSettings
  1

  4
A3
  6

 40
7.5
 41
20.0
 42
7.5
 43
20.0
 44
420.0
 45
297.0
 46
0.0
 47
0.0
 48
0.0
 49
0.0
140
0.0
141
0.0
142
1.0
143
1.0
 70
0
 72
1
 73
0
 74
5
  7

 75
16
 76
0
 77
2
 78
300
147
1.0
148
0.0
149
0.0
100
AcDbLayout
  1
Layout1
 70
1
 71
1
 10
0.0
 20
0.0
 11
420.0
 21
297.0
 12
0.0
 22
0.0
 32
0.0
 14
1e+20
 24
1e+20
 34
1e+20
 15
-1e+20
 25
-1e+20
 35
-1e+20
146
0.0
 13
0.0
 23
0.0
 33
0.0
 16
1.0
 26
0.0
 36
0.0
 17
0.0
 27
1.0
 37
0.0
 76
1
330
1B
  0
MATERIAL
  5
1F
102
{ACAD_REACTORS
330
E
102
}
330
E
100
AcDbMaterial
  1
ByBlock
  2

 70
0
 40
1.0
 71
1
 41
1.0
 91
-1023410177
 42
1.0
 72
1
  3

 73
1
 74
1
 75
1
 44
0.5
 73
0
 45
1.0
 46
1.0
 77
1
  4

 78
1
 79
1
170
1
 48
1.0
171
1
  6

172
1
173
1
174
1
140
1.0
141
1.0
175
1
  7

176
1
177
1
178
1
143
1.0
179
1
  8

270
1
271
1
272
1
145
1.0
146
1.0
273
1
  9

274
1
275
1
276
1
 42
1.0
 72
1
  3

 73
1
 74
1
 75
1
 94
63
  0
MATERIAL
  5
20
102
{ACAD_REACTORS
330
E
102
}
330
E
100
AcDbMaterial
  1
ByLayer
  2

 70
0
 40
1.0
 71
1
 41
1.0
 91
-1023410177
 42
1.0
 72
1
  3

 73
1
 74
1
 75
1
 44
0.5
 73
0
 45
1.0
 46
1.0
 77
1
  4

 78
1
 79
1
170
1
 48
1.0
171
1
  6

172
1
173
1
174
1
140
1.0
141
1.0
175
1
  7

176
1
177
1
178
1
143
1.0
179
1
  8

270
1
271
1
272
1
145
1.0
146
1.0
273
1
  9

274
1
275
1
276
1
 42
1.0
 72
1
  3

 73
1
 74
1
 75
1
 94
63
  0
MATERIAL
  5
21
102
{ACAD_REACTORS
330
E
102
}
330
E
100
AcDbMaterial
  1
Global
  2

 70
0
 40
1.0
 71
1
 41
1.0
 91
-1023410177
 42
1.0
 72
1
  3

 73
1
 74
1
 75
1
 44
0.5
 73
0
 45
1.0
 46
1.0
 77
1
  4

 78
1
 79
1
170
1
 48
1.0
171
1
  6

172
1
173
1
174
1
140
1.0
141
1.0
175
1
  7

176
1
177
1
178
1
143
1.0
179
1
  8

270
1
271
1
272
1
145
1.0
146
1.0
273
1
  9

274
1
275
1
276
1
 42
1.0
 72
1
  3

 73
1
 74
1
 75
1
 94
63
  0
MLINESTYLE
  5
22
102
{ACAD_REACTORS
330
10
102
}
330
10
100
AcDbMlineStyle
  2
Standard
 70
0
  3

 62
256
 51
90.0
 52
90.0
 71
2
 49
0.5
 62
256
  6
BYLAYER
 49
-0.5
 62
256
  6
BYLAYER
  0
MLEADERSTYLE
  5
2C
102
{ACAD_REACTORS
330
F
102
}
330
F
100
AcDbMLeaderStyle
179
2
170
2
171
1
172
0
 90
2
 40
0.0
 41
0.0
173
1
 91
-1056964608
 92
-2
290
1
 42
2.0
291
1
 43
8.0
  3
Standard
 44
4.0
300

342
29
174
1
175
1
176
0
178
1
 93
-1056964608
 45
4.0
292
0
297
0
 46
4.0
 94
-1056964608
 47
1.0
 49
1.0
140
1.0
294
1
141
0.0
177
0
142
1.0
295
0
296
0
143
3.75
271
0
272
9
273
9
  0
DICTIONARY
  5
2D
330
A
100
AcDbDictionary
280
1
281
1
  3
CREATED_BY_EZDXF
350
2E
  3
WRITTEN_BY_EZDXF
350
36
  0
DICTIONARYVAR
  5
2E
330
2D
100
DictionaryVariables
280
0
  1
1.4.3 @ 2026-01-25T20:01:32.858038+00:00
  0
DICTIONARYVAR
  5
36
330
2D
100
DictionaryVariables
280
0
  1
1.4.3 @ 2026-01-25T20:01:32.880733+00:00
  0
ENDSEC
  0
EOF
